<?xml version="1.0" encoding="UTF-8" standalone="no"?>
<!DOCTYPE svg PUBLIC "-//W3C//DTD SVG 20010904//EN"
              "http://www.w3.org/TR/2001/REC-SVG-20010904/DTD/svg10.dtd">

<svg xmlns="http://www.w3.org/2000/svg"
     width="24.294168mm" height="24.294168mm"
     viewBox="0 0 512 512">
  <path id="Unnamed"
        fill="#000" stroke="black" stroke-width="2"
        d="M 177.33,93.00
           C 177.33,93.00 241.67,279.00 241.67,279.00
             241.67,279.00 269.67,279.00 269.67,279.00
             269.67,279.00 334.33,93.33 334.33,93.33
             334.33,93.33 177.33,93.00 177.33,93.00 Z
           M 351.67,111.67
           C 351.67,111.67 369.00,70.33 369.00,70.33
             369.00,70.33 497.33,113.00 497.33,113.00
             497.33,113.00 351.67,111.67 351.67,111.67 Z
           M 160.33,111.33
           C 160.33,111.33 142.67,70.67 142.67,70.67
             142.67,70.67 8.33,112.00 8.33,112.00
             8.33,112.00 160.33,111.33 160.33,111.33 Z
           M 169.67,130.67
           C 169.67,130.67 175.00,147.00 175.00,147.00
             175.00,147.00 58.33,148.00 58.33,148.00
             58.33,148.00 52.00,131.67 52.00,131.67
             52.00,131.67 169.67,130.67 169.67,130.67 Z
           M 180.00,160.67
           C 180.00,160.67 186.00,177.33 186.00,177.33
             186.00,177.33 76.33,178.00 76.33,178.00
             76.33,178.00 69.33,160.33 69.33,160.33
             69.33,160.33 180.00,160.67 180.00,160.67 Z
           M 191.67,190.00
           C 191.67,190.00 198.00,207.00 198.00,207.00
             198.00,207.00 93.33,207.00 93.33,207.00
             93.33,207.00 87.67,189.33 87.67,189.33
             87.67,189.33 191.67,190.00 191.67,190.00 Z
           M 203.67,218.67
           C 203.67,218.67 209.00,235.67 209.00,235.67
             209.00,235.67 105.33,235.67 105.33,235.67
             105.33,235.67 99.00,219.67 99.00,219.67
             99.00,219.67 203.67,218.67 203.67,218.67 Z
           M 214.67,259.67
           C 214.67,259.67 226.33,294.00 226.33,294.00
             226.33,294.00 285.00,294.67 285.00,294.67
             285.00,294.67 297.33,259.00 297.33,259.00
             297.33,259.00 396.00,258.67 396.00,258.67
             396.00,258.67 314.00,393.67 314.00,393.67
             314.00,393.67 198.67,393.00 198.67,393.00
             198.67,393.00 116.67,259.33 116.67,259.33
             116.67,259.33 214.67,259.67 214.67,259.67 Z
           M 343.33,131.33
           C 343.33,131.33 337.67,147.67 337.67,147.67
             337.67,147.67 454.00,147.67 454.00,147.67
             454.00,147.67 459.67,131.33 459.67,131.33
             459.67,131.33 343.33,131.33 343.33,131.33 Z
           M 332.67,160.33
           C 332.67,160.33 326.33,177.67 326.33,177.67
             326.33,177.67 436.33,178.00 436.33,178.00
             436.33,178.00 441.67,160.33 441.67,160.33
             441.67,160.33 332.67,160.33 332.67,160.33 Z
           M 320.67,191.00
           C 320.67,191.00 314.33,206.67 314.33,206.67
             314.33,206.67 425.00,206.67 425.00,206.67
             425.00,206.67 431.33,189.33 431.33,189.33
             431.33,189.33 320.67,191.00 320.67,191.00 Z
           M 314.33,218.00
           C 314.33,218.00 308.33,235.67 308.33,235.67
             308.33,235.67 406.67,235.67 406.67,235.67
             406.67,235.67 413.67,218.00 413.67,218.00
             413.67,218.00 314.33,218.00 314.33,218.00 Z" />
</svg>
