<?xml version="1.0" encoding="UTF-8" standalone="no"?>
<!DOCTYPE svg PUBLIC "-//W3C//DTD SVG 20010904//EN"
              "http://www.w3.org/TR/2001/REC-SVG-20010904/DTD/svg10.dtd">

<svg xmlns="http://www.w3.org/2000/svg"
     width="50mm" height="50mm"
     viewBox="0 0 500 500">
  <path id="Unnamed"
        fill="#000" stroke="black" stroke-width="1"
        d="M 243.25,102.00
           C 204.64,102.07 199.67,155.33 244.00,155.25M 244.75,155.50
           C 287.38,150.42 277.49,97.98 243.75,102.00M 227.33,205.67
           C 142.36,195.51 141.09,36.78 243.33,49.00
             350.06,37.51 352.45,196.90 261.67,206.67
             261.67,206.67 455.33,459.33 455.33,459.33
             455.33,459.33 291.67,460.33 291.67,460.33
             291.67,460.33 331.33,400.67 331.33,400.67
             331.33,400.67 245.00,265.67 245.00,265.67
             245.00,265.67 160.00,393.33 160.00,393.33
             160.00,393.33 200.33,460.00 200.33,460.00
             200.33,460.00 38.33,459.67 38.33,459.67
             38.33,459.67 227.33,205.67 227.33,205.67 Z" />
</svg>
